<svg width="94" height="40" viewBox="0 0 94 40" fill="none" xmlns="http://www.w3.org/2000/svg">
<path d="M63.6308 20.3587V17.68C63.6464 17.5251 63.6001 17.3703 63.502 17.2494C63.3732 17.1483 63.2098 17.1019 63.0472 17.1206H61.1658C59.479 17.1206 58.6356 16.2509 58.6356 14.5115V11.1324C58.6356 9.42539 59.5361 8.57138 61.3371 8.57037H63.9522C65.7532 8.57037 66.6537 9.42438 66.6537 11.1324V13.0668H63.5884V11.5993C63.5884 11.2112 63.3953 11.0172 63.0093 11.0172H62.2801C61.895 11.0172 61.701 11.2112 61.701 11.5993V14.2129C61.6861 14.3677 61.7323 14.5222 61.8298 14.6434C61.9588 14.7442 62.122 14.7904 62.2846 14.7723H64.1281C65.0377 14.7723 65.7001 14.9861 66.0989 15.4136C66.4976 15.8411 66.7052 16.4748 66.7052 17.3116V20.7984C66.7052 22.5226 65.8047 23.3846 64.0038 23.3846H61.4008C59.5816 23.3846 58.672 22.5226 58.672 20.7984V18.8882H61.7389V20.3557C61.7389 20.7438 61.9314 20.9378 62.3165 20.9378H63.0456C63.4368 20.9399 63.6318 20.7468 63.6308 20.3587Z" fill="#1D8EFF"/>
<path d="M74.1003 23.3877L73.6273 20.7074H71.4943L71.0228 23.3877H67.9908L70.5923 8.57037H74.5005L77.1869 23.3877H74.1003ZM71.8809 17.3101H73.2195L72.551 14.0613L71.8809 17.3101Z" fill="#1D8EFF"/>
<path d="M79.2122 21.3805V8.57037H82.2563V20.4542H85.2049V23.3877H81.3224C79.4547 23.3877 79.2122 21.3805 79.2122 21.3805Z" fill="#1D8EFF"/>
<path d="M87.1666 21.3381V8.57037H93.4595V11.5038H90.2365V14.6283H93.1624V17.0736H90.2365V20.4542H93.1487V23.2998H88.9995C87.5168 23.2998 87.1666 21.3381 87.1666 21.3381Z" fill="#1D8EFF"/>
<path d="M51.3043 20.0752H44.6051V16.828L50.8207 8.27628H54.7501V17.0114H56.5344V20.0752H54.7456V23.2194H51.3043V20.0752ZM51.3043 17.0114V12.5453L48.4769 17.0175L51.3043 17.0114Z" fill="#1D8EFF"/>
<path d="M36.7219 2.73685L42.2098 23.3877H23.2023C23.2023 23.3877 15.5556 28.113 10.4953 19.5189C10.4953 19.5189 9.53413 17.4586 8.83677 17.7179C6.90995 18.4365 3.54141 21.1076 5.4076 25.3539C5.4076 25.3539 6.40057 27.5976 10.5862 28.201C10.5862 28.201 16.4986 29.4138 30.5685 28.7482C30.5685 28.7482 41.4746 27.8963 47.9933 37.4H43.2407C43.2407 37.4 40.1344 31.2466 28.7417 30.9419C28.7417 30.9419 16.7442 31.3315 11.0668 30.5962C8.0712 30.2097 -0.932281 29.5972 0.867202 20.9985C1.14614 19.6705 2.59846 17.7133 5.40002 16.7992C5.40002 16.7992 0.817173 3.25077 12.222 5.45047C12.222 5.45047 15.4056 6.54653 12.7238 6.84973C12.7238 6.84973 5.19536 7.43339 9.62206 15.4484C9.62206 15.4484 12.4539 14.6283 13.2256 14.6283C13.2256 14.6283 14.1261 23.9971 19.4866 21.8641C19.4866 21.8641 19.9126 21.3775 19.5473 19.4279C19.1819 17.4784 17.4143 12.2421 17.4143 12.2421L21.9835 11.998L24.1528 20.4057H28.4416L23.6844 2.73685H28.193L32.8834 20.4057H36.3566L32.2786 2.73685H36.7219Z" fill="#1D8EFF"/>
<path d="M14.7476 24.7839C14.4553 24.7842 14.1673 24.854 13.9073 24.9876C13.6474 25.1213 13.423 25.3149 13.2528 25.5525C13.0247 25.2353 12.7019 24.9986 12.3307 24.8765C11.9596 24.7543 11.5593 24.7531 11.1874 24.8729C10.8155 24.9927 10.4912 25.2274 10.2611 25.5432C10.031 25.859 9.9071 26.2397 9.9071 26.6304C9.9071 27.0211 10.031 27.4018 10.2611 27.7176C10.4912 28.0334 10.8155 28.2681 11.1874 28.3879C11.5593 28.5077 11.9596 28.5065 12.3307 28.3844C12.7019 28.2622 13.0247 28.0255 13.2528 27.7083C13.4377 27.9646 13.6853 28.1691 13.9719 28.3022C14.2585 28.4353 14.5745 28.4926 14.8895 28.4685C15.2046 28.4444 15.5082 28.3399 15.7713 28.1648C16.0344 27.9897 16.248 27.75 16.3919 27.4686C16.5357 27.1872 16.6048 26.8736 16.5927 26.5579C16.5805 26.2421 16.4874 25.9348 16.3224 25.6653C16.1573 25.3958 15.9259 25.1732 15.6501 25.0189C15.3743 24.8646 15.0636 24.7837 14.7476 24.7839Z" fill="#1D8EFF"/>
<path d="M22.464 28.4769C23.4838 28.4769 24.3105 27.6502 24.3105 26.6304C24.3105 25.6106 23.4838 24.7839 22.464 24.7839C21.4442 24.7839 20.6176 25.6106 20.6176 26.6304C20.6176 27.6502 21.4442 28.4769 22.464 28.4769Z" fill="#1D8EFF"/>
</svg>
