<svg width="24" height="24" viewBox="0 0 24 24" fill="none" xmlns="http://www.w3.org/2000/svg">
<path fill-rule="evenodd" clip-rule="evenodd" d="M5.04515 15.9239H22.279C20.6987 20.0611 16.693 23.0002 12.0003 23.0002C7.30754 23.0002 3.3019 20.0611 1.72156 15.9239H5.04515Z" fill="#D80027"/>
<path fill-rule="evenodd" clip-rule="evenodd" d="M5.04515 8.07626H1.72156C3.3019 3.93906 7.30758 1 12.0003 1C16.693 1 20.6987 3.93906 22.279 8.07626H5.04515Z" fill="#007A3D"/>
<path fill-rule="evenodd" clip-rule="evenodd" d="M5.04504 8.07611H22.2789C23.2406 10.6035 23.2406 13.3961 22.2789 15.9235H5.04504V8.07611Z" fill="#F5F5F5"/>
<path fill-rule="evenodd" clip-rule="evenodd" d="M5.04487 18.107V5.89309L3.60606 4.89166C1.92344 6.87801 1 9.39684 1 12.0001C1 14.6033 1.92344 17.1221 3.60606 19.1085L5.04487 18.107Z" fill="#6B809B"/>
<path fill-rule="evenodd" clip-rule="evenodd" d="M8.18163 15.9238V8.07633L5.04491 5.89309L3.60606 4.89166C1.92344 6.87801 1 9.39684 1 12.0001C1 14.6033 1.92344 17.1221 3.60606 19.1085L5.04487 18.107L8.18163 15.9238Z" fill="black"/>
</svg>
